# xmcd
#
# Track frame offsets:
#	187
#	17185
#	28837
#	42067
#	52220
#	64560
#	76165
#	89572
#	107177
#	119340
#
# Disc length: 1763 seconds
#
# Revision: 2
# Processed by: cddbd v1.5PL3 Copyright (c) Steve Scherf et al.
# Submitted via: dBpowerAMP V4.0
#
DISCID=8206e10a
DTITLE=ConwayTwitty,AKAHaroldLloydJenkins,FriarsPoint,MS&LorettaLynn,AKAWebb,Butcher'sHollow,KY - MakingBelieve;MCAD42216
DYEAR=1988
DGENRE=country
TTITLE0=MakingBelieve(JimmyWork;1988,ConwayTwitty,AKAHaroldLloydJenkins,FriarsPoint,MS&LorettaLynn,AKAWebb,Butcher'sHollow,KY)
TTITLE1=ICan'tHelpIt{IfI'mStillInLoveWithYou}(HankWilliams;1988,ConwayTwitty,AKAHaroldLloydJenkins,FriarsPoint,MS&LorettaLynn,AKAWebb,Butcher'sHollow,KY)
TTITLE2=FadedLove(Bob&JohnWills;1988,ConwayTwitty,AKAHaroldLloydJenkins,FriarsPoint,MS&LorettaLynn,AKAWebb,Butcher'sHollow,KY)
TTITLE3=HalfAsMuch(CurleyWilliams;1988,ConwayTwitty,AKAHaroldLloydJenkins,FriarsPoint,MS&LorettaLynn,AKAWebb,Butcher'sHollow,KY)
TTITLE4=PleaseHelpMeI'mFallingInLove(DonRobertson,HalBlair;1988,ConwayTwitty,AKAHaroldLloydJenkins,FriarsPoint,MS&LorettaLynn,AKAWebb,Butcher'sHollow,KY)
TTITLE5=HeyGoodLookin'(HankWilliams;1988,ConwayTwitty,AKAHaroldLloydJenkins,FriarsPoint,MS&LorettaLynn,AKAWebb,Butcher'sHollow,KY)
TTITLE6=ReleaseMe(EddieMiller,DubWilliams,RobertYount;1988,ConwayTwitty,AKAHaroldLloydJenkins,FriarsPoint,MS&LorettaLynn,AKAWebb,Butcher'sHollow,KY)
TTITLE7=BackHomeAgain(JohnDenver;1988,ConwayTwitty,AKAHaroldLloydJenkins,FriarsPoint,MS&LorettaLynn,AKAWebb,Butcher'sHollow,KY)
TTITLE8=AsSoonAsIHangUpThePhone{TheTelephoneSong}(CTwitty;1988,ConwayTwitty,AKAHaroldLloydJenkins,FriarsPoint,MS&LorettaLynn,AKAWebb,Butcher'sHollow,KY)
TTITLE9=It'sTrueLove(RandyGoodrum;1988,ConwayTwitty,AKAHaroldLloydJenkins,FriarsPoint,MS&LorettaLynn,AKAWebb,Butcher'sHollow,KY)
EXTD=more info
EXTT0=
EXTT1=
EXTT2=
EXTT3=
EXTT4=
EXTT5=
EXTT6=
EXTT7=
EXTT8=
EXTT9=
PLAYORDER=
